HIERARCHY
ROOT joint_Root
{
	OFFSET 0.0 0.0 0.0
	CHANNELS 6 Xposition Yposition Zposition Zrotation Xrotation Yrotation 
	JOINT Hips
	{
		OFFSET -17.1583 93.1646 452.98
		CHANNELS 6 Xposition Yposition Zposition Zrotation Xrotation Yrotation 
		JOINT Spine
		{
			OFFSET 15.7357 0.0 0.0
			CHANNELS 6 Xposition Yposition Zposition Zrotation Xrotation Yrotation 
			JOINT Chest
			{
				OFFSET 8.98455 -0.406207 0.0
				CHANNELS 6 Xposition Yposition Zposition Zrotation Xrotation Yrotation 
				JOINT Neck
				{
					OFFSET 16.3773 0.0 0.0
					CHANNELS 6 Xposition Yposition Zposition Zrotation Xrotation Yrotation 
					JOINT Head
					{
						OFFSET 6.45672 0.0 0.0
						CHANNELS 6 Xposition Yposition Zposition Zrotation Xrotation Yrotation 
						End Site
						{
							OFFSET 0.0 0.0 0.0
						}
					}
				}
				JOINT Shoulder_L
				{
					OFFSET 12.9942 -0.242716 4.98039
					CHANNELS 6 Xposition Yposition Zposition Zrotation Xrotation Yrotation 
					JOINT UpperArm_L
					{
						OFFSET 5.34809 0.0 0.0
						CHANNELS 6 Xposition Yposition Zposition Zrotation Xrotation Yrotation 
						JOINT LowerArm_L
						{
							OFFSET 24.3286 1.87007e-05 0.0
							CHANNELS 6 Xposition Yposition Zposition Zrotation Xrotation Yrotation 
							JOINT Hand_L
							{
								OFFSET 22.2916 0.0 0.0
								CHANNELS 6 Xposition Yposition Zposition Zrotation Xrotation Yrotation 
								End Site
								{
									OFFSET 0.0 0.0 0.0
								}
							}
						}
					}
				}
				JOINT Shoulder_R
				{
					OFFSET 12.9945 -0.242716 -4.98039
					CHANNELS 6 Xposition Yposition Zposition Zrotation Xrotation Yrotation 
					JOINT UpperArm_R
					{
						OFFSET -5.34813 0.0 0.0
						CHANNELS 6 Xposition Yposition Zposition Zrotation Xrotation Yrotation 
						JOINT LowerArm_R
						{
							OFFSET -24.3289 0.000322201 0.0
							CHANNELS 6 Xposition Yposition Zposition Zrotation Xrotation Yrotation 
							JOINT Hand_R
							{
								OFFSET -22.2915 -0.000108084 0.0
								CHANNELS 6 Xposition Yposition Zposition Zrotation Xrotation Yrotation 
								End Site
								{
									OFFSET 0.0 0.0 0.0
								}
							}
						}
					}
				}
			}
		}
		JOINT UpperLeg_L
		{
			OFFSET -2.19248 -6.46944 0.0
			CHANNELS 6 Xposition Yposition Zposition Zrotation Xrotation Yrotation 
			JOINT LowerLeg_L
			{
				OFFSET 39.0811 0.0 -1.23785e-05
				CHANNELS 6 Xposition Yposition Zposition Zrotation Xrotation Yrotation 
				JOINT Foot_L
				{
					OFFSET 40.9854 0.0 -1.26872e-05
					CHANNELS 6 Xposition Yposition Zposition Zrotation Xrotation Yrotation 
					JOINT Toes_L
					{
						OFFSET 11.7543 0.0 0.0
						CHANNELS 6 Xposition Yposition Zposition Zrotation Xrotation Yrotation 
						End Site
						{
							OFFSET 0.0 0.0 0.0
						}
					}
				}
			}
		}
		JOINT UpperLeg_R
		{
			OFFSET -2.19251 6.46944 0.0
			CHANNELS 6 Xposition Yposition Zposition Zrotation Xrotation Yrotation 
			JOINT LowerLeg_R
			{
				OFFSET -39.0811 -0.00228153 -0.0401928
				CHANNELS 6 Xposition Yposition Zposition Zrotation Xrotation Yrotation 
				JOINT Foot_R
				{
					OFFSET -40.9854 0.0 0.0
					CHANNELS 6 Xposition Yposition Zposition Zrotation Xrotation Yrotation 
					JOINT Toes_R
					{
						OFFSET -11.7543 0.0 0.0
						CHANNELS 6 Xposition Yposition Zposition Zrotation Xrotation Yrotation 
						End Site
						{
							OFFSET 0.0 0.0 0.0
						}
					}
				}
			}
		}
	}
}
MOTION
Frames:	9
Frame Time:	0.0333333
0.000000 0.000000 0.000000 0.000000 0.000000 -0.000000 0.430863 92.684200 0.712722 86.265000 -2.987080 0.003264 15.735700 0.000005 -0.000001 91.470400 88.067200 -89.598900 8.984550 -0.406207 -0.000000 -3.897400 -0.091244 3.741400 16.377300 -0.000001 -0.000001 4.942760 3.461900 -1.740770 6.456720 -0.000001 -0.000000 4.716210 3.950370 -4.645070 12.994200 -0.242716 4.980390 -92.809800 8.511350 -71.654300 5.348090 -0.000007 -0.000001 -74.281600 20.685800 4.571560 24.328600 0.000019 0.000005 15.398600 26.456800 -31.724000 22.291600 -0.000001 0.000005 -2.106160 5.024580 6.792090 12.994500 -0.242716 -4.980390 88.486100 5.052340 -73.295000 -5.348130 -0.000001 -0.000004 -71.334000 31.184600 -3.606230 -24.328900 0.000322 -0.000009 2.183540 7.325480 -16.655900 -22.291500 -0.000108 -0.000004 1.752710 5.253090 1.350940 -2.192480 -6.469440 -0.000000 -176.552000 -2.758070 -3.156160 39.081100 -0.000007 -0.000012 0.241022 -0.628992 20.966700 40.985400 -0.000006 -0.000013 3.561210 8.543790 -73.244200 11.754300 -0.000000 0.000003 -0.000470 0.175196 -9.470530 -2.192510 6.469440 -0.000001 -175.070000 5.840150 -178.496000 -39.081100 -0.002282 -0.040193 0.025876 -0.098546 12.884500 -40.985400 0.000008 0.000006 -1.605290 3.470160 -69.307200 -11.754300 -0.000006 -0.000006 -0.011286 0.280678 -5.167460
0.000000 0.000000 0.000000 0.000000 0.000000 -0.000000 0.366815 92.691000 0.707787 86.289600 -3.020020 -0.057435 15.735700 0.000005 -0.000001 91.391600 88.067400 -89.517000 8.984550 -0.406207 -0.000000 -3.897680 -0.096875 3.747390 16.377300 -0.000001 -0.000001 4.866870 3.383490 -1.764960 6.456720 -0.000001 -0.000000 4.486350 3.842000 -4.755000 12.994200 -0.242716 4.980390 -92.832700 8.557310 -71.606300 5.348090 -0.000007 -0.000001 -74.037100 19.636500 4.706790 24.328600 0.000019 0.000005 15.638400 25.853700 -32.697500 22.291600 -0.000001 0.000005 -2.256810 5.019180 6.908910 12.994500 -0.242716 -4.980390 88.463700 5.108470 -73.237000 -5.348130 -0.000001 -0.000004 -71.280900 31.144400 -3.608970 -24.328900 0.000322 -0.000009 2.177080 7.296790 -16.670700 -22.291500 -0.000108 -0.000004 1.763690 5.256060 1.271890 -2.192480 -6.469440 -0.000000 -176.537000 -2.767290 -3.177960 39.081100 -0.000007 -0.000012 0.237790 -0.623085 20.889000 40.985400 -0.000006 -0.000013 3.515350 8.549210 -73.175700 11.754300 -0.000000 0.000003 -0.000339 0.173154 -9.553460 -2.192510 6.469440 -0.000001 -175.054000 5.874960 -178.530000 -39.081100 -0.002282 -0.040193 0.025335 -0.096682 12.820200 -40.985400 0.000008 0.000006 -1.551790 3.513900 -69.265700 -11.754300 -0.000006 -0.000006 -0.011331 0.280993 -5.154560
0.000000 0.000000 0.000000 0.000000 0.000000 -0.000000 0.295987 92.691400 0.699894 86.309100 -3.011960 -0.093283 15.735700 0.000005 -0.000001 91.237900 88.054600 -89.348100 8.984550 -0.406207 -0.000000 -3.871620 -0.107807 3.777530 16.377300 -0.000001 -0.000001 4.776390 3.246410 -1.819580 6.456720 -0.000001 -0.000000 4.128190 3.619020 -5.035890 12.994200 -0.242716 4.980390 -92.864600 8.625380 -71.548900 5.348090 -0.000007 -0.000001 -73.732500 18.590700 4.937440 24.328600 0.000019 0.000005 16.130400 25.237800 -34.149100 22.291600 -0.000001 0.000005 -2.028940 5.020390 6.882850 12.994500 -0.242716 -4.980390 88.450200 5.127170 -73.156700 -5.348130 -0.000001 -0.000004 -71.246200 31.122200 -3.634770 -24.328900 0.000322 -0.000009 2.197960 7.360280 -16.685400 -22.291500 -0.000108 -0.000004 1.811700 5.253700 1.334570 -2.192480 -6.469440 -0.000000 -176.495000 -2.823710 -3.210140 39.081100 -0.000007 -0.000012 0.237824 -0.623464 20.880100 40.985400 -0.000006 -0.000013 3.477500 8.641860 -73.191000 11.754300 -0.000000 0.000003 -0.000392 0.173985 -9.519710 -2.192510 6.469440 -0.000001 -175.014000 5.856680 -178.576000 -39.081100 -0.002282 -0.040193 0.025931 -0.099253 12.825900 -40.985400 0.000008 0.000006 -1.492380 3.489660 -69.281900 -11.754300 -0.000006 -0.000006 -0.011394 0.281443 -5.136150
0.000000 0.000000 0.000000 0.000000 0.000000 -0.000000 0.216938 92.707900 0.668076 86.328800 -3.026080 -0.249986 15.735700 0.000005 -0.000001 91.338300 88.063100 -89.429900 8.984550 -0.406207 -0.000000 -3.888610 -0.103552 3.814770 16.377300 -0.000001 -0.000001 4.638950 3.045420 -1.912570 6.456720 -0.000001 -0.000000 3.575870 3.279850 -5.444600 12.994200 -0.242716 4.980390 -92.909100 8.714860 -71.459300 5.348090 -0.000007 -0.000001 -73.340800 17.344900 5.199800 24.328600 0.000019 0.000005 17.121300 24.800700 -36.292900 22.291600 -0.000001 0.000005 -1.897740 5.023880 6.807370 12.994500 -0.242716 -4.980390 88.434300 5.145890 -73.051800 -5.348130 -0.000001 -0.000004 -71.164500 31.216700 -3.724710 -24.328900 0.000322 -0.000009 2.194330 7.334870 -16.713600 -22.291500 -0.000108 -0.000004 1.751530 5.253910 1.329210 -2.192480 -6.469440 -0.000000 -176.465000 -2.834410 -3.337620 39.081100 -0.000007 -0.000012 0.235103 -0.619856 20.771500 40.985400 -0.000006 -0.000013 3.410840 8.655270 -73.100900 11.754300 -0.000000 0.000003 -0.000197 0.170870 -9.646250 -2.192510 6.469440 -0.000001 -174.963000 5.792710 -178.701000 -39.081100 -0.002282 -0.040193 0.024697 -0.094698 12.712300 -40.985400 0.000008 0.000006 -1.605160 3.450710 -69.169700 -11.754300 -0.000006 -0.000006 -0.011165 0.279810 -5.203000
0.000000 0.000000 0.000000 0.000000 0.000000 -0.000000 0.113778 92.717500 0.635471 86.358600 -3.005320 -0.334372 15.735700 0.000005 -0.000001 91.536700 88.043600 -89.617600 8.984550 -0.406207 -0.000000 -3.850300 -0.089564 3.836680 16.377300 -0.000001 -0.000001 4.508380 2.669790 -2.030130 6.456720 -0.000001 -0.000000 2.791510 2.687390 -6.036760 12.994200 -0.242716 4.980390 -92.957500 8.806930 -71.353800 5.348090 -0.000007 -0.000001 -72.831400 15.820900 5.577320 24.328600 0.000019 0.000005 18.493400 24.129800 -39.288100 22.291600 -0.000001 0.000005 -1.940460 5.020690 6.876330 12.994500 -0.242716 -4.980390 88.406600 5.198500 -72.932500 -5.348130 -0.000001 -0.000004 -71.074800 31.265400 -3.757110 -24.328900 0.000322 -0.000009 2.179560 7.248830 -16.792300 -22.291500 -0.000108 -0.000004 1.824420 5.253440 1.341570 -2.192480 -6.469440 -0.000000 -176.420000 -2.818840 -3.420460 39.081100 -0.000007 -0.000012 0.233562 -0.617433 20.721100 40.985400 -0.000006 -0.000013 3.333600 8.699840 -73.098100 11.754300 -0.000000 0.000003 -0.000314 0.172750 -9.569870 -2.192510 6.469440 -0.000001 -174.908000 5.778130 -178.763000 -39.081100 -0.002282 -0.040193 0.024438 -0.094194 12.628100 -40.985400 0.000008 0.000006 -1.509390 3.419560 -69.143300 -11.754300 -0.000006 -0.000006 -0.011159 0.279774 -5.204470
0.000000 0.000000 0.000000 0.000000 0.000000 -0.000000 0.007966 92.733100 0.592839 86.371300 -2.998800 -0.480474 15.735700 0.000005 -0.000001 92.155100 88.031100 -90.216600 8.984550 -0.406207 -0.000000 -3.827210 -0.048012 3.876900 16.377300 -0.000001 -0.000001 4.317930 2.127490 -2.209860 6.456720 -0.000001 -0.000000 1.834790 1.823080 -6.847090 12.994200 -0.242716 4.980390 -93.015200 8.900880 -71.200000 5.348090 -0.000007 -0.000001 -72.250500 14.211000 6.084920 24.328600 0.000019 0.000005 20.297000 23.099400 -43.310900 22.291600 -0.000001 0.000005 -1.727710 5.012580 7.050560 12.994500 -0.242716 -4.980390 88.381300 5.236110 -72.794900 -5.348130 -0.000001 -0.000004 -70.977900 31.392000 -3.827710 -24.328900 0.000322 -0.000009 2.142430 7.092220 -16.864300 -22.291500 -0.000108 -0.000004 1.853980 5.254930 1.302060 -2.192480 -6.469440 -0.000000 -176.360000 -2.847610 -3.556990 39.081100 -0.000007 -0.000012 0.230818 -0.612739 20.641800 40.985400 -0.000006 -0.000013 3.244070 8.713420 -73.051600 11.754300 -0.000000 0.000003 -0.000321 0.172865 -9.565200 -2.192510 6.469440 -0.000001 -174.826000 5.685350 -178.900000 -39.081100 -0.002282 -0.040193 0.023221 -0.089475 12.531000 -40.985400 0.000008 0.000006 -1.640410 3.340870 -69.012200 -11.754300 -0.000006 -0.000006 -0.010845 0.277516 -5.296890
0.000000 0.000000 0.000000 0.000000 0.000000 -0.000000 -0.137658 92.745500 0.542660 86.358800 -2.910060 -0.659369 15.735700 0.000005 -0.000001 92.199400 88.040500 -90.228100 8.984550 -0.406207 -0.000000 -3.845940 -0.049332 3.942470 16.377300 -0.000001 -0.000001 4.120610 1.421150 -2.428320 6.456720 -0.000001 -0.000000 0.792112 0.695094 -7.911950 12.994200 -0.242716 4.980390 -93.061500 8.989220 -71.104200 5.348090 -0.000007 -0.000001 -71.562900 12.641900 6.830550 24.328600 0.000019 0.000005 22.787900 21.837000 -48.476100 22.291600 -0.000001 0.000005 -1.633520 5.005300 7.206670 12.994500 -0.242716 -4.980390 88.374600 5.214110 -72.659300 -5.348130 -0.000001 -0.000004 -70.945200 31.520300 -3.909110 -24.328900 0.000322 -0.000009 2.151800 7.135680 -16.837200 -22.291500 -0.000108 -0.000004 1.857110 5.253310 1.345010 -2.192480 -6.469440 -0.000000 -176.243000 -2.855020 -3.773560 39.081100 -0.000007 -0.000012 0.231167 -0.614278 20.622900 40.985400 -0.000006 -0.000013 3.155300 8.835190 -73.012500 11.754300 -0.000000 0.000003 -0.000275 0.172128 -9.595160 -2.192510 6.469440 -0.000001 -174.683000 5.682360 -179.025000 -39.081100 -0.002282 -0.040193 0.021997 -0.085253 12.347500 -40.985400 0.000008 0.000006 -1.548810 3.242940 -68.904900 -11.754300 -0.000006 -0.000006 -0.010899 0.277907 -5.280890
0.000000 0.000000 0.000000 0.000000 0.000000 -0.000000 -0.281535 92.750400 0.526925 86.364600 -2.868540 -0.701157 15.735700 0.000005 -0.000001 92.559600 88.014500 -90.568900 8.984550 -0.406207 -0.000000 -3.795390 -0.023498 3.982280 16.377300 -0.000001 -0.000001 3.898180 0.677999 -2.746230 6.456720 -0.000001 -0.000000 -0.056882 -0.538399 -9.003490 12.994200 -0.242716 4.980390 -93.079600 8.992210 -71.005700 5.348090 -0.000007 -0.000001 -70.844100 11.191700 7.701000 24.328600 0.000019 0.000005 26.858500 20.796300 -54.961000 22.291600 -0.000001 0.000005 -1.785270 4.999240 7.335570 12.994500 -0.242716 -4.980390 88.378800 5.185300 -72.611600 -5.348130 -0.000001 -0.000004 -70.952100 31.583800 -3.917920 -24.328900 0.000322 -0.000009 2.157080 7.154480 -16.834600 -22.291500 -0.000108 -0.000004 1.842320 5.253990 1.327220 -2.192480 -6.469440 -0.000000 -176.138000 -2.844200 -3.813270 39.081100 -0.000007 -0.000012 0.229957 -0.611716 20.602800 40.985400 -0.000006 -0.000013 3.052620 8.892480 -73.031700 11.754300 -0.000000 0.000003 -0.000308 0.172659 -9.573570 -2.192510 6.469440 -0.000001 -174.577000 5.652290 -179.023000 -39.081100 -0.002282 -0.040193 0.020691 -0.080012 12.239000 -40.985400 0.000008 0.000006 -1.506880 3.158590 -68.838400 -11.754300 -0.000006 -0.000006 -0.011362 0.281214 -5.145490
0.000000 0.000000 0.000000 0.000000 0.000000 -0.000000 -0.448503 92.755900 0.488347 86.369600 -2.802920 -0.828259 15.735700 0.000005 -0.000001 93.226300 88.038300 -91.239900 8.984550 -0.406207 -0.000000 -3.846070 0.019496 3.975030 16.377300 -0.000001 -0.000001 3.681110 -0.107011 -3.048070 6.456720 -0.000001 -0.000000 -0.752086 -1.868710 -10.068200 12.994200 -0.242716 4.980390 -93.049400 8.878190 -70.956900 5.348090 -0.000007 -0.000001 -70.157800 9.657000 8.598130 24.328600 0.000019 0.000005 31.103500 18.843000 -61.836100 22.291600 -0.000001 0.000005 -1.726330 4.985720 7.621240 12.994500 -0.242716 -4.980390 88.379000 5.172110 -72.572300 -5.348130 -0.000001 -0.000004 -71.010000 31.638200 -3.850100 -24.328900 0.000322 -0.000009 2.162400 7.169050 -16.841500 -22.291500 -0.000108 -0.000004 1.819560 5.253060 1.352010 -2.192480 -6.469440 -0.000000 -176.034000 -2.772500 -3.972860 39.081100 -0.000007 -0.000012 0.230746 -0.613555 20.610800 40.985400 -0.000006 -0.000013 2.924940 8.889440 -73.069700 11.754300 -0.000000 0.000003 -0.000339 0.173146 -9.553790 -2.192510 6.469440 -0.000001 -174.440000 5.621010 -179.125000 -39.081100 -0.002282 -0.040193 0.020588 -0.080197 12.140900 -40.985400 0.000008 0.000006 -1.406340 3.067390 -68.825800 -11.754300 -0.000006 -0.000006 -0.011435 0.281735 -5.124180
